<svg width="164" height="165" viewBox="0 0 164 165" fill="none" xmlns="http://www.w3.org/2000/svg">
<path d="M63.3594 3.33943L58.5432 0.155416L58.1939 5.91834L63.3594 3.33943ZM34.8601 100.839L35.2256 100.498C28.2478 93.0221 18.2508 80.3817 10.9507 66.778C7.30088 59.9767 4.33359 52.95 2.74992 46.2187C1.16572 39.485 0.973671 33.0798 2.83443 27.4975L2.36009 27.3394L1.88574 27.1813C-0.0534988 32.999 0.166951 39.6063 1.7765 46.4477C3.38658 53.2913 6.39429 60.4021 10.0695 67.2509C17.4194 80.9472 27.4723 93.6568 34.4946 101.181L34.8601 100.839ZM2.36009 27.3394L2.83443 27.4975C6.25462 17.237 15.6164 11.0792 26.5161 7.56916C37.406 4.06227 49.7233 3.23679 58.8488 3.56676L58.8668 3.06709L58.8849 2.56741C49.6874 2.23483 37.2454 3.06342 26.2096 6.61729C15.1837 10.168 5.45362 16.4777 1.88574 27.1813L2.36009 27.3394Z" fill="#B54620"/>
<path d="M93.8594 107.343L94.1847 107.722L94.1847 107.722L93.8594 107.343ZM131.36 101.841L126.495 98.731L126.235 104.499L131.36 101.841ZM84.8611 148.841L85.3611 148.834C85.3188 145.792 84.7906 142.568 84.3003 139.269C83.8077 135.954 83.3499 132.545 83.4215 129.064C83.5638 122.142 85.7993 114.906 94.1847 107.722L93.8594 107.343L93.5341 106.963C84.9164 114.346 82.5694 121.858 82.4217 129.044C82.3482 132.617 82.8185 136.101 83.3111 139.416C83.806 142.746 84.3201 145.889 84.3611 148.848L84.8611 148.841ZM93.8594 107.343L94.1847 107.722C98.4814 104.041 104.327 102.482 110.291 101.93C116.251 101.378 122.255 101.838 126.832 102.136L126.865 101.637L126.897 101.138C122.34 100.841 116.253 100.374 110.199 100.934C104.149 101.494 98.06 103.086 93.5341 106.963L93.8594 107.343Z" fill="#B54620"/>
</svg>
