<svg width="63" height="102" viewBox="0 0 63 102" fill="none" xmlns="http://www.w3.org/2000/svg">
<path d="M63 3.33943L58.1838 0.155416L57.8345 5.91834L63 3.33943ZM34.5007 100.839L34.8662 100.498C27.8885 93.0221 17.8914 80.3817 10.5913 66.778C6.94151 59.9767 3.97421 52.95 2.39055 46.2187C0.806346 39.485 0.614296 33.0798 2.47505 27.4975L2.00071 27.3394L1.52637 27.1813C-0.412874 32.999 -0.192424 39.6063 1.41712 46.4477C3.02721 53.2913 6.03491 60.4021 9.71014 67.2509C17.06 80.9472 27.113 93.6568 34.1352 101.181L34.5007 100.839ZM2.00071 27.3394L2.47505 27.4975C5.89524 17.237 15.2571 11.0792 26.1567 7.56916C37.0466 4.06227 49.3639 3.23679 58.4894 3.56676L58.5075 3.06709L58.5255 2.56741C49.328 2.23483 36.886 3.06342 25.8502 6.61729C14.8243 10.168 5.09425 16.4777 1.52637 27.1813L2.00071 27.3394Z" fill="#B54620"/>
</svg>
