<svg width="221" height="264" viewBox="0 0 221 264" fill="none" xmlns="http://www.w3.org/2000/svg">
<path d="M76.2594 96.8916L81.9083 95.6987L78.0508 91.403L76.2594 96.8916ZM27.3437 109.195L31.5003 113.202L32.8921 107.599L27.3437 109.195ZM27.3437 103.255L28.1298 97.5356L22.7833 99.7147L27.3437 103.255ZM99.4522 214.833L99.7036 215.265C153.089 184.214 168.119 136.537 159.705 105.166C155.498 89.4817 145.408 77.8385 131.286 74.5138C117.173 71.1912 99.1978 76.2164 79.287 93.5008L79.6148 93.8784L79.9425 94.256C99.7194 77.0878 117.375 72.266 131.057 75.4872C144.731 78.7065 154.601 89.9983 158.739 105.425C167.014 136.278 152.275 183.531 99.2008 214.401L99.4522 214.833ZM89.7534 74.8306L89.2962 74.6281C86.0313 82.0021 79.306 92.3553 69.5635 100.081C59.8316 107.798 47.1135 112.877 31.8131 109.79L31.7143 110.281L31.6154 110.771C47.2718 113.929 60.2821 108.717 70.1848 100.864C80.0771 93.0202 86.893 82.5259 90.2106 75.033L89.7534 74.8306ZM25.6431 99.083L26.116 98.9204C19.9026 80.8524 23.8886 52.7469 40.182 32.4626C48.3188 22.333 59.5193 14.1615 74.0457 10.1647C88.5738 6.16737 106.461 6.3369 127.98 12.9438L128.127 12.4658L128.274 11.9878C106.609 5.33638 88.5254 5.14352 73.7804 9.20052C59.0338 13.258 47.6589 21.5576 39.4024 31.8364C22.9094 52.3691 18.8375 80.8304 25.1703 99.2456L25.6431 99.083Z" fill="#B54620"/>
</svg>
