<svg width="221" height="264" viewBox="0 0 221 264" fill="none" xmlns="http://www.w3.org/2000/svg">
<path d="M102.794 102.5L107.453 105.911L108.078 100.171L102.794 102.5ZM90.7945 49.4998L95.8018 52.3739L95.7872 46.6004L90.7945 49.4998ZM49.7948 199L47.4767 193.712L44.0565 198.364L49.7948 199ZM113.295 188.5L117.279 192.678L118.905 187.138L113.295 188.5ZM49.795 176.5L55.5403 175.93L52.1743 171.24L49.795 176.5ZM44.7946 195.115L45.1344 194.749L44.7946 195.115ZM178.295 205.5L178.767 205.663C185.659 185.726 184.607 162.052 173.416 142.293C162.215 122.518 140.888 106.717 107.34 102.492L107.277 102.988L107.215 103.484C140.486 107.675 161.518 123.316 172.545 142.786C183.582 162.272 184.629 185.646 177.822 205.336L178.295 205.5ZM118.794 95.9997L119.261 96.1792C122.075 88.8642 124.406 77.4313 121.883 67.6334C120.618 62.7214 118.128 58.2045 113.854 54.8404C109.581 51.477 103.568 49.3004 95.3176 48.9887L95.2987 49.4884L95.2799 49.988C103.372 50.2937 109.166 52.4232 113.235 55.6262C117.304 58.8282 119.693 63.1376 120.915 67.8828C123.366 77.3993 121.103 88.6048 118.328 95.8203L118.794 95.9997ZM140.295 148L139.997 148.401C146.999 153.593 152.194 159.625 155.275 165.521C158.36 171.426 159.303 177.147 157.896 181.753C156.498 186.329 152.749 189.914 146.199 191.515C139.629 193.122 130.261 192.721 117.741 189.284L117.609 189.766L117.477 190.249C130.079 193.708 139.635 194.15 146.437 192.486C153.26 190.818 157.332 187.021 158.852 182.046C160.362 177.101 159.319 171.101 156.162 165.058C153 159.008 147.697 152.865 140.592 147.598L140.295 148ZM84.795 120L84.3079 119.887C82.8288 126.271 79.6179 136.09 74.4796 146.109C69.3397 156.131 62.2883 166.321 53.1435 173.482L53.4517 173.876L53.76 174.27C63.0605 166.986 70.1929 156.659 75.3694 146.565C80.5474 136.468 83.7855 126.572 85.2821 120.113L84.795 120ZM36.2948 185.5L36.6604 185.159C19.2653 166.521 7.08787 131.933 9.90561 100.197C11.3134 84.341 16.4617 69.2288 26.5395 57.1803C36.6125 45.1376 51.6405 36.1189 72.879 32.4929L72.7948 32L72.7107 31.5071C51.266 35.1684 36.0151 44.2933 25.7725 56.5387C15.5348 68.7784 10.331 84.099 8.90953 100.109C6.06882 132.104 18.3244 166.979 35.9293 185.841L36.2948 185.5ZM46.1692 196.334L46.4922 195.952C46.0419 195.571 45.5891 195.17 45.1344 194.749L44.7946 195.115L44.4549 195.482C44.9199 195.913 45.3838 196.324 45.8461 196.716L46.1692 196.334ZM44.7946 195.115L45.1344 194.749C42.8998 192.679 40.6218 190.138 38.356 187.195L37.9598 187.5L37.5636 187.805C39.8561 190.783 42.1712 193.367 44.4549 195.482L44.7946 195.115Z" fill="#B54620"/>
</svg>
