<svg width="221" height="264" viewBox="0 0 221 264" fill="none" xmlns="http://www.w3.org/2000/svg">
<path d="M191.775 228.101L191.523 228.533L192.092 228.865L192.259 228.227L191.775 228.101ZM60.2596 29.5165L65.3229 32.2906L65.1938 26.5186L60.2596 29.5165ZM101.378 228.101L106.462 225.364L101.551 222.33L101.378 228.101ZM92.8936 142.015L98.6566 141.667L95.4734 136.85L92.8936 142.015ZM112.474 201.688L112.852 202.015L112.474 201.688ZM73.3132 163.537L71.0939 168.866L76.8194 168.124L73.3132 163.537ZM41.6582 47.1251L41.558 52.8977L46.6073 50.0982L41.6582 47.1251ZM191.775 228.101L192.259 228.227C199.865 199.119 201.629 148.979 184.692 106.27C176.219 84.9058 163.059 65.3818 143.591 51.2893C124.119 37.194 98.3703 28.5575 64.7679 28.9155L64.7732 29.4155L64.7785 29.9154C98.1952 29.5594 123.728 38.1454 143.005 52.0994C162.285 66.0562 175.343 85.4084 183.762 106.638C200.608 149.116 198.854 199.033 191.291 227.974L191.775 228.101ZM191.775 228.101L192.027 227.669C180.804 221.119 164.244 212.053 147.708 208.681C139.435 206.994 131.137 206.725 123.502 208.933C115.856 211.143 108.905 215.829 103.329 223.993L103.742 224.275L104.155 224.557C109.602 216.581 116.361 212.038 123.78 209.893C131.21 207.745 139.334 207.994 147.508 209.661C163.866 212.996 180.3 221.982 191.523 228.533L191.775 228.101ZM191.775 228.101H192.275C192.275 206.826 180.361 177.377 162.481 156.849C153.536 146.58 143.064 138.504 131.795 134.814C120.508 131.119 108.446 131.835 96.3867 139.108L96.6449 139.536L96.9032 139.964C108.703 132.847 120.462 132.156 131.484 135.765C142.526 139.38 152.854 147.32 161.727 157.506C179.482 177.891 191.275 207.114 191.275 228.101H191.775ZM109.863 157.667L109.468 157.973C123.671 176.358 118.152 194.354 112.096 201.361L112.474 201.688L112.852 202.015C119.197 194.674 124.774 176.15 110.259 157.361L109.863 157.667ZM112.474 201.688L112.096 201.361C110.324 203.411 107.464 203.621 103.877 202.291C100.305 200.965 96.1824 198.161 92.1431 194.497C84.0572 187.161 76.4693 176.53 74.378 167.879L73.892 167.997L73.406 168.114C75.5627 177.036 83.3073 187.831 91.4711 195.237C95.5567 198.944 99.7885 201.841 103.529 203.228C107.255 204.61 110.666 204.545 112.852 202.015L112.474 201.688ZM80.1664 116.581L80.6037 116.338L44.2775 50.8182L43.8402 51.0607L43.4029 51.3031L79.7291 116.823L80.1664 116.581Z" fill="#B54620"/>
</svg>
