<svg width="56" height="19" viewBox="0 0 56 19" fill="none" xmlns="http://www.w3.org/2000/svg">
<g id="Group 1321316615">
<circle id="Ellipse 1" cx="28" cy="9.5" r="5" fill="#A09E98"/>
<path id="&#60;" d="M12.8953 18.912C12.3495 18.912 11.8173 18.721 11.2988 18.3389L10.0706 17.1108C9.77042 16.7833 9.60667 16.6059 9.57938 16.5786C9.55208 16.5513 9.38833 16.4558 9.08812 16.292C8.97896 16.1829 8.80156 16.0055 8.55594 15.7598C8.3376 15.5142 8.20115 15.3778 8.14656 15.3505L8.1875 15.3914C8.05104 15.3368 7.90094 15.2413 7.73719 15.1048C7.57344 14.9684 7.46427 14.9001 7.40969 14.9001L7.36875 14.8183C6.93208 14.6272 6.44083 14.3134 5.895 13.8767C5.34917 13.4128 4.74875 13.0034 4.09375 12.6486C3.90271 12.5394 3.79354 12.4303 3.76625 12.3211C3.73896 12.2119 3.67073 12.1437 3.56156 12.1164C3.47969 12.0618 3.275 11.9117 2.9475 11.6661C2.62 11.4205 2.23792 11.1475 1.80125 10.8473C1.39188 10.5198 1.00979 10.1923 0.655 9.86483C0.300208 9.53733 0.081875 9.25077 0 9.00515C0.081875 9.03244 0.0955208 8.92327 0.0409375 8.67765C-0.0136458 8.43202 0.0136458 8.14546 0.122813 7.81796C0.231979 7.49046 0.573125 7.21754 1.14625 6.99921C1.20083 7.0265 1.4601 6.94463 1.92406 6.75358C2.41531 6.53525 3.00208 6.23504 3.68437 5.85296C4.39396 5.44358 5.0626 4.99327 5.69031 4.50202C5.79948 4.44744 5.93594 4.4065 6.09969 4.37921C6.26344 4.32463 6.38625 4.27004 6.46813 4.21546C6.63188 4.079 6.85021 3.99713 7.12312 3.96983C7.39604 3.94254 7.58708 3.86067 7.69625 3.72421V3.64233C7.94187 3.39671 8.16021 3.13744 8.35125 2.86452C8.89708 2.18223 9.40198 1.71827 9.86594 1.47265C10.3299 1.22702 10.6574 1.02233 10.8484 0.858585C11.0668 0.667543 11.326 0.572021 11.6263 0.572021C12.0629 0.572021 12.445 0.735772 12.7725 1.06327C13.1273 1.39077 13.3047 1.55452 13.3047 1.55452L13.4275 1.71827C13.5912 2.07306 13.6731 2.40056 13.6731 2.70077C13.6731 3.41035 13.1955 3.72421 12.2403 3.64233C12.213 3.61504 12.213 3.65598 12.2403 3.76515C12.2949 3.87431 12.2949 3.95619 12.2403 4.01077C12.1857 4.03806 12.1039 4.05171 11.9947 4.05171C11.8855 4.02442 11.8036 4.02442 11.7491 4.05171C11.3397 4.32463 11.0668 4.51567 10.9303 4.62484C10.8211 4.70671 10.6983 4.95233 10.5619 5.36171C10.5346 5.41629 10.3981 5.45723 10.1525 5.48452C9.93417 5.51181 9.70219 5.55275 9.45656 5.60733C9.23823 5.63463 9.11542 5.67556 9.08812 5.73015L8.47406 6.38515C7.87365 7.01286 7.17771 7.43588 6.38625 7.65421C5.59479 7.84525 4.96708 8.04994 4.50313 8.26827C4.39396 8.24098 4.23021 8.37744 4.01188 8.67765C3.82083 8.97785 3.72531 9.12796 3.72531 9.12796C3.61615 9.23713 3.73896 9.44181 4.09375 9.74202C4.47583 10.0422 4.98073 10.4107 5.60844 10.8473C6.26344 11.2567 6.95938 11.707 7.69625 12.1983C8.43313 12.6895 9.11542 13.1808 9.74312 13.672C10.2071 14.0268 10.5755 14.2724 10.8484 14.4089C11.1486 14.5454 11.3943 14.6682 11.5853 14.7773C11.8036 14.8592 12.022 15.0093 12.2403 15.2276C12.4859 15.4187 12.7725 15.7871 13.1 16.333C13.3456 16.715 13.5094 17.0562 13.5912 17.3564C13.7004 17.6293 13.755 17.8749 13.755 18.0933C13.755 18.6391 13.4684 18.912 12.8953 18.912Z" fill="#A09E98"/>
<path id="&#62;" d="M42.9006 18.912C42.655 18.912 42.4367 18.8438 42.2456 18.7073C42.0819 18.5709 42 18.3662 42 18.0933C42 17.6839 42.2183 17.0971 42.655 16.333C42.9825 15.7871 43.2554 15.4187 43.4737 15.2276C43.7194 15.0093 43.9377 14.8592 44.1288 14.7773C44.3471 14.6682 44.5927 14.5454 44.8656 14.4089C45.1658 14.2724 45.5479 14.0268 46.0119 13.672C46.6396 13.1808 47.3219 12.6895 48.0587 12.1983C48.7956 11.707 49.4779 11.2567 50.1056 10.8473C50.7606 10.4107 51.2655 10.0422 51.6203 9.74202C52.0024 9.44181 52.1389 9.23713 52.0297 9.12796C52.0297 9.12796 51.9205 8.97785 51.7022 8.67765C51.5111 8.37744 51.361 8.24098 51.2519 8.26827C50.8152 8.04994 50.2011 7.84525 49.4097 7.65421C48.6182 7.43588 47.9086 7.01286 47.2809 6.38515L46.6669 5.73015C46.6669 5.67556 46.5441 5.63463 46.2984 5.60733C46.0528 5.55275 45.8072 5.51181 45.5616 5.48452C45.3432 5.45723 45.2204 5.41629 45.1931 5.36171C45.084 4.95233 44.9611 4.70671 44.8247 4.62484C44.6882 4.51567 44.4153 4.32463 44.0059 4.05171C43.9514 4.02442 43.8695 4.02442 43.7603 4.05171C43.6511 4.05171 43.5693 4.03806 43.5147 4.01077C43.4874 3.95619 43.4874 3.87431 43.5147 3.76515C43.542 3.65598 43.542 3.61504 43.5147 3.64233C42.5595 3.72421 42.0819 3.41036 42.0819 2.70077C42.0819 2.40056 42.1637 2.07306 42.3275 1.71827L42.4503 1.55452C42.4503 1.55452 42.6141 1.39077 42.9416 1.06327C43.2964 0.735772 43.6921 0.572021 44.1288 0.572021C44.429 0.572021 44.6882 0.667543 44.9066 0.858585C45.1249 1.02233 45.466 1.22702 45.93 1.47265C46.394 1.71827 46.8852 2.18223 47.4037 2.86452C47.6221 3.13744 47.8404 3.39671 48.0587 3.64233V3.72421C48.1679 3.86067 48.359 3.94254 48.6319 3.96984C48.9048 3.99713 49.1231 4.079 49.2869 4.21546C49.3688 4.27004 49.4916 4.32463 49.6553 4.37921C49.8191 4.4065 49.9555 4.44744 50.0647 4.50202C50.7197 4.99327 51.3883 5.44358 52.0706 5.85296C52.7529 6.23504 53.3397 6.53525 53.8309 6.75358C54.3222 6.94463 54.5815 7.0265 54.6088 6.99921C55.2092 7.21754 55.5503 7.49046 55.6322 7.81796C55.7414 8.14546 55.7686 8.43202 55.7141 8.67765C55.6595 8.92327 55.6731 9.03244 55.755 9.00515C55.6731 9.25077 55.4548 9.53733 55.1 9.86483C54.7452 10.1923 54.3495 10.5198 53.9128 10.8473C53.5034 11.1475 53.135 11.4205 52.8075 11.6661C52.48 11.9117 52.2753 12.0618 52.1934 12.1164C52.0843 12.1437 52.016 12.2119 51.9887 12.3211C51.9615 12.4303 51.8523 12.5394 51.6613 12.6486C51.0062 13.0034 50.4058 13.4128 49.86 13.8767C49.3415 14.3134 48.8502 14.6272 48.3863 14.8183L48.3453 14.9001C48.2907 14.9001 48.1816 14.9684 48.0178 15.1048C47.8541 15.2413 47.704 15.3368 47.5675 15.3914L47.6084 15.3505C47.5811 15.3778 47.4447 15.5142 47.1991 15.7598C46.9534 16.0055 46.776 16.1829 46.6669 16.292C46.3667 16.4558 46.2029 16.5513 46.1756 16.5786C46.1483 16.6059 45.9846 16.7833 45.6844 17.1108L44.4563 18.3389C43.9377 18.721 43.4192 18.912 42.9006 18.912Z" fill="#A09E98"/>
</g>
</svg>
