<svg width="19" height="20" viewBox="0 0 19 20" fill="none" xmlns="http://www.w3.org/2000/svg">
<g id="noun-7605190 1">
<path id="Vector" d="M1.88281 13.0792C1.88281 15.6186 3.94298 17.6783 6.48281 17.6783H12.8828C15.4226 17.6783 17.4828 15.6186 17.4828 13.0792V6.68058C17.4828 4.14128 15.4226 2.08154 12.8828 2.08154H6.48281C3.94298 2.08154 1.88281 4.14128 1.88281 6.68058V13.0792ZM13.8828 4.88096C14.443 4.88096 14.8828 5.32072 14.8828 5.88075C14.8828 6.44078 14.443 6.88054 13.8828 6.88054C13.3227 6.88054 12.8828 6.44078 12.8828 5.88075C12.8828 5.32072 13.3227 4.88096 13.8828 4.88096ZM9.68281 6.08071C11.7828 6.08071 13.4828 7.78035 13.4828 9.87992C13.4828 11.9795 11.7828 13.6791 9.68281 13.6791C7.58281 13.6791 5.88281 11.9795 5.88281 9.87992C5.88281 7.78035 7.58281 6.08071 9.68281 6.08071Z" fill="#131211"/>
<path id="Vector_2" d="M12.2859 9.87998C12.2859 11.3156 11.1219 12.4794 9.68594 12.4794C8.25 12.4794 7.08594 11.3156 7.08594 9.87998C7.08594 8.44434 8.25 7.28052 9.68594 7.28052C11.1219 7.28052 12.2859 8.44434 12.2859 9.87998Z" fill="#131211"/>
</g>
</svg>
