<svg width="107" height="10" viewBox="0 0 107 10" fill="none" xmlns="http://www.w3.org/2000/svg">
<rect width="107" height="10" fill="#2B2B2B"/>
<g id="Main &#226;&#128;&#148; desk">
<path d="M-744 -951C-744 -952.105 -743.105 -953 -742 -953H3142C3143.1 -953 3144 -952.105 3144 -951V5347C3144 5348.1 3143.1 5349 3142 5349H-742C-743.105 5349 -744 5348.1 -744 5347V-951Z" fill="#444444"/>
<path d="M-742 -952H3142V-954H-742V-952ZM3143 -951V5347H3145V-951H3143ZM3142 5348H-742V5350H3142V5348ZM-743 5347V-951H-745V5347H-743ZM-742 5348C-742.552 5348 -743 5347.55 -743 5347H-745C-745 5348.66 -743.657 5350 -742 5350V5348ZM3143 5347C3143 5347.55 3142.55 5348 3142 5348V5350C3143.66 5350 3145 5348.66 3145 5347H3143ZM3142 -952C3142.55 -952 3143 -951.552 3143 -951H3145C3145 -952.657 3143.66 -954 3142 -954V-952ZM-742 -954C-743.657 -954 -745 -952.657 -745 -951H-743C-743 -951.552 -742.552 -952 -742 -952V-954Z" fill="white" fill-opacity="0.1"/>
<g id="zarina del mar">
<path d="M0 9.1V7.54L4.394 1.56H0.156V0H6.474V1.56L2.093 7.54H6.617V9.1H0Z" fill="#131211"/>
<path d="M7.41254 9.1L10.8315 0H12.3265L15.7455 9.1H13.8345L13.2235 7.293H9.88254L9.27154 9.1H7.41254ZM10.4285 5.733H12.6905L11.5725 2.431L10.4285 5.733Z" fill="#131211"/>
<path d="M16.9835 9.1V0H21.1955C21.7675 0 22.2615 0.0866668 22.6775 0.260001C23.1022 0.433334 23.4272 0.715 23.6525 1.105C23.8865 1.495 24.0035 2.01933 24.0035 2.678C24.0035 3.49267 23.8258 4.108 23.4705 4.524C23.1238 4.93133 22.6428 5.19133 22.0275 5.304L23.8735 9.1H21.9105L20.2985 5.382H18.6735V9.1H16.9835ZM18.6735 3.809H20.9615C21.3515 3.809 21.6592 3.72233 21.8845 3.549C22.1098 3.37567 22.2225 3.08533 22.2225 2.678C22.2225 2.27933 22.1098 1.99333 21.8845 1.82C21.6592 1.64667 21.3515 1.56 20.9615 1.56H18.6735V3.809Z" fill="#131211"/>
<path d="M25.5716 9.1V0H27.2616V9.1H25.5716Z" fill="#131211"/>
<path d="M29.2593 9.1V0H30.9493L35.0183 6.149V0H36.7213V9.1H35.1093L30.9493 2.743V9.1H29.2593Z" fill="#131211"/>
<path d="M37.9437 9.1L41.3628 0H42.8577L46.2767 9.1H44.3657L43.7547 7.293H40.4137L39.8027 9.1H37.9437ZM40.9598 5.733H43.2217L42.1037 2.431L40.9598 5.733Z" fill="#131211"/>
<path d="M51.4183 9.1V0H54.4212C55.3052 0 56.0809 0.160333 56.7482 0.481C57.4156 0.801667 57.9356 1.29567 58.3083 1.963C58.6809 2.63033 58.8672 3.49267 58.8672 4.55C58.8672 5.59 58.6809 6.448 58.3083 7.124C57.9356 7.79133 57.4156 8.28967 56.7482 8.619C56.0809 8.93967 55.3052 9.1 54.4212 9.1H51.4183ZM53.1082 7.54H54.2912C55.1406 7.54 55.8209 7.29733 56.3322 6.812C56.8436 6.32667 57.0993 5.57267 57.0993 4.55C57.0993 3.51867 56.8436 2.76467 56.3322 2.288C55.8209 1.80267 55.1406 1.56 54.2912 1.56H53.1082V7.54Z" fill="#131211"/>
<path d="M60.4253 9.1V0H66.6263V1.56H62.1153V3.679H66.2363V5.239H62.1153V7.54H66.7693V9.1H60.4253Z" fill="#131211"/>
<path d="M68.3279 9.1V0H70.0179V7.54H74.6849V9.1H68.3279Z" fill="#131211"/>
<path d="M79.9309 9.1V0H81.6209L84.0909 4.29L86.5349 0H88.2379V9.1H86.5219V2.925L84.5719 6.461H83.5839L81.6339 2.925V9.1H79.9309Z" fill="#131211"/>
<path d="M89.4659 9.1L92.8849 0H94.3799L97.7989 9.1H95.8879L95.2769 7.293H91.9359L91.3249 9.1H89.4659ZM92.4819 5.733H94.7439L93.6259 2.431L92.4819 5.733Z" fill="#131211"/>
<path d="M99.0368 9.1V0H103.249C103.821 0 104.315 0.0866668 104.731 0.260001C105.156 0.433334 105.481 0.715 105.706 1.105C105.94 1.495 106.057 2.01933 106.057 2.678C106.057 3.49267 105.879 4.108 105.524 4.524C105.177 4.93133 104.696 5.19133 104.081 5.304L105.927 9.1H103.964L102.352 5.382H100.727V9.1H99.0368ZM100.727 3.809H103.015C103.405 3.809 103.713 3.72233 103.938 3.549C104.163 3.37567 104.276 3.08533 104.276 2.678C104.276 2.27933 104.163 1.99333 103.938 1.82C103.713 1.64667 103.405 1.56 103.015 1.56H100.727V3.809Z" fill="#131211"/>
</g>
</g>
</svg>
