<svg width="16" height="17" viewBox="0 0 16 17" fill="none" xmlns="http://www.w3.org/2000/svg">
<path d="M8 0.810547C12.1844 0.810547 15.5898 4.21697 15.5898 8.40137C15.5897 12.5856 12.1843 15.9912 8 15.9912C6.71971 15.9912 5.46087 15.6678 4.34375 15.0518L0.473633 16.1895L1.43945 12.2188C0.764035 11.0613 0.410215 9.74531 0.410156 8.40137C0.410156 4.21702 3.81567 0.810631 8 0.810547ZM4.5 7.5C3.94766 7.5 3.5 7.94766 3.5 8.5C3.5 9.05234 3.94766 9.5 4.5 9.5C5.05234 9.5 5.5 9.05234 5.5 8.5C5.5 7.94766 5.05234 7.5 4.5 7.5ZM8 7.5C7.44766 7.5 7 7.94766 7 8.5C7 9.05234 7.44766 9.5 8 9.5C8.55234 9.5 9 9.05234 9 8.5C9 7.94766 8.55234 7.5 8 7.5ZM11.5 7.5C10.9477 7.5 10.5 7.94766 10.5 8.5C10.5 9.05234 10.9477 9.5 11.5 9.5C12.0523 9.5 12.5 9.05234 12.5 8.5C12.5 7.94766 12.0523 7.5 11.5 7.5Z" fill="#131211"/>
</svg>
