<svg width="22" height="22" viewBox="0 0 22 22" fill="none" xmlns="http://www.w3.org/2000/svg">
<g id="noun-7340180 1">
<path id="Vector" d="M7.34342 17.5517C8.46062 18.1679 9.7196 18.491 11 18.491C15.1844 18.491 18.59 15.0854 18.59 10.901C18.59 6.71664 15.1844 3.31104 11 3.31104C6.8156 3.31104 3.41 6.71664 3.41 10.901C3.41 12.2451 3.76406 13.5608 4.43953 14.7184L3.47358 18.6896L7.34342 17.5517ZM7.74646 7.35438C7.90716 7.20657 8.11599 7.1275 8.33426 7.1275H8.56543C8.87138 7.1275 9.14379 7.31914 9.24778 7.60531L9.72043 8.90811C9.76426 9.031 9.74277 9.16764 9.66113 9.27076L9.2873 9.7374C9.13948 9.91959 9.09995 10.1688 9.18589 10.3862C9.63878 11.5258 10.9854 12.3266 11.6893 12.679C11.9445 12.8062 12.2505 12.7581 12.4524 12.5578L12.8658 12.1445C12.9646 12.0456 13.1124 12.0104 13.2465 12.0517L14.5003 12.4521C14.802 12.5492 15.0065 12.8285 15.0065 13.1448V13.4636C15.0065 13.6965 14.9137 13.9208 14.7487 14.0858C13.5275 15.2915 11.5011 14.4072 10.1881 13.602C9.24194 13.021 8.41694 12.2579 7.8033 11.3316C6.3183 9.09014 7.22065 7.83394 7.74658 7.35434L7.74646 7.35438Z" fill="#131211"/>
</g>
</svg>
